Coordinates
version=1
nRows=29
nColumns=22
inDegrees=yes

Units are S.I. units (second, meters, Newtons, ...)
If the header above contains a line with 'inDegrees', this indicates whether rotational values are in degrees (yes) or radians (no).

endheader
time	pelvis_tilt	pelvis_list	pelvis_rotation	pelvis_tx	pelvis_ty	pelvis_tz	hip_flexion_r	hip_adduction_r	hip_rotation_r	knee_angle_r	ankle_angle_r	subtalar_angle_r	hip_flexion_l	hip_adduction_l	hip_rotation_l	knee_angle_l	ankle_angle_l	subtalar_angle_l	lumbar_extension	lumbar_bending	lumbar_rotation
      2.61000000	      5.25603244	      1.60126823	    -32.05188010	     -0.15756486	      0.90335360	      0.07835762	     17.21013843	     -6.80508178	      0.92378871	    -58.86879661	     12.41187786	     -5.34133115	      4.17749682	      7.28029326	    -16.36432386	    -19.98244618	     14.76284516	    -10.03518073	    -12.99142745	     -5.54505678	      5.85247272
      2.62000000	      5.23759063	      1.52137837	    -31.57733917	     -0.14874502	      0.90373217	      0.08175483	     18.06140468	     -6.93500366	      0.36178187	    -57.44817426	     13.01853850	     -6.52750502	      3.16297737	      7.33218855	    -16.08524243	    -19.43710769	     15.03242147	     -9.66103869	    -13.02695274	     -5.32905558	      5.37771687
      2.63000000	      5.22367934	      1.44430353	    -31.11774803	     -0.13994389	      0.90391921	      0.08522392	     18.83034635	     -7.06734518	     -0.22417707	    -55.83538431	     13.59512868	     -7.62149686	      2.17187529	      7.36717739	    -15.80953389	    -18.93913666	     15.31798494	     -9.29351388	    -13.05908854	     -5.12482657	      4.91128261
      2.64000000	      5.20093197	      1.35324534	    -30.65953096	     -0.13115981	      0.90393778	      0.08876190	     19.50943639	     -7.18273326	     -0.86589366	    -54.02690193	     14.07035449	     -8.45909920	      1.20748326	      7.36908906	    -15.47688991	    -18.48716109	     15.59335459	     -8.96159490	    -13.08790000	     -4.90807769	      4.45419978
      2.65000000	      5.17641570	      1.26809978	    -30.23703711	     -0.12243381	      0.90374874	      0.09244203	     20.11799343	     -7.28464779	     -1.52618549	    -52.05041081	     14.52932149	     -9.14766298	      0.28493483	      7.34790913	    -15.18911300	    -18.10357821	     15.93375647	     -8.62654741	    -13.10833938	     -4.71734774	      4.04812631
      2.66000000	      5.14957987	      1.17059394	    -29.83749402	     -0.11375481	      0.90339022	      0.09622502	     20.63989485	     -7.36315159	     -2.23590650	    -49.90609952	     14.88105243	     -9.53546859	     -0.60400789	      7.29457148	    -14.90211882	    -17.78979976	     16.31008696	     -8.33004002	    -13.13411130	     -4.52018364	      3.65347806
      2.67000000	      5.13069632	      1.04254821	    -29.47328505	     -0.10514212	      0.90291494	      0.10019164	     21.04415902	     -7.37906329	     -2.96720746	    -47.58620657	     15.15170154	     -9.73502934	     -1.49542437	      7.19906064	    -14.62033967	    -17.51425924	     16.70073146	     -8.02547485	    -13.18320692	     -4.32090365	      3.31253606
      2.68000000	      5.12445501	      0.88724207	    -29.14746935	     -0.09658275	      0.90232190	      0.10434299	     21.33499005	     -7.34761321	     -3.75345453	    -45.11019225	     15.30928912	     -9.69934625	     -2.38336546	      7.06584744	    -14.35127521	    -17.29917806	     17.11239222	     -7.73494995	    -13.25568456	     -4.12578657	      3.01934446
      2.69000000	      5.14328513	      0.69651625	    -28.85519983	     -0.08803998	      0.90164801	      0.10864759	     21.49212612	     -7.26726206	     -4.60119672	    -42.48656045	     15.36382400	     -9.41334913	     -3.29720636	      6.89995651	    -14.09649017	    -17.11823017	     17.53445257	     -7.44721725	    -13.36796342	     -3.91943471	      2.78583280
      2.70000000	      5.14751179	      0.48256762	    -28.58718316	     -0.07954286	      0.90082041	      0.11313258	     21.56630379	     -7.11297680	     -5.49667522	    -39.74193014	     15.34794188	     -8.98740040	     -4.16611908	      6.68009621	    -13.87186912	    -17.02241220	     18.03304847	     -7.22275440	    -13.47201655	     -3.70033448	      2.56605470
      2.71000000	      5.25215432	      0.23727662	    -28.38004962	     -0.07097928	      0.90003885	      0.11782179	     21.45032619	     -6.95354487	     -6.48567089	    -36.90023905	     15.23796735	     -8.12936552	     -5.18523792	      6.49006304	    -13.64790012	    -16.86723485	     18.41417114	     -6.92252953	    -13.67722796	     -3.52261052	      2.47888182
      2.72000000	      5.31739817	     -0.02523028	    -28.18464546	     -0.06245449	      0.89908260	      0.12267203	     21.28404456	     -6.69558519	     -7.49941302	    -33.97818886	     15.09754633	     -7.20432416	     -6.12218257	      6.23477513	    -13.45164160	    -16.81917240	     18.87869753	     -6.67089297	    -13.84551500	     -3.32028023	      2.37066889
      2.73000000	      5.36714353	     -0.29374601	    -28.02002444	     -0.05390721	      0.89798269	      0.12769891	     21.07715634	     -6.37979744	     -8.59577307	    -31.04303683	     14.89874010	     -6.12523992	     -7.01865753	      5.94484665	    -13.31733833	    -16.83913576	     19.35999598	     -6.40533718	    -13.98490119	     -3.11955882	      2.33882663
      2.74000000	      5.45422630	     -0.58118067	    -27.86879016	     -0.04531463	      0.89684607	      0.13286970	     20.76611279	     -6.00769065	     -9.72091579	    -28.11176795	     14.73910675	     -5.25499392	     -7.96345150	      5.64899748	    -13.15371066	    -16.86579831	     19.82613663	     -6.17548690	    -14.16029553	     -2.92729951	      2.32516882
      2.75000000	      5.49116811	     -0.85139235	    -27.74639759	     -0.03674729	      0.89552864	      0.13820240	     20.48994318	     -5.54936754	    -10.76780552	    -25.26024806	     14.50219570	     -4.12452933	     -8.80740974	      5.31809099	    -13.06145602	    -16.98443163	     20.27890562	     -5.87742267	    -14.26538389	     -2.74195064	      2.31889081
      2.76000000	      5.51731014	     -1.11956944	    -27.64107526	     -0.02812184	      0.89409858	      0.14366616	     20.21688976	     -5.03506171	    -11.76789966	    -22.55977868	     14.34334790	     -3.18445952	     -9.63427959	      4.97575478	    -12.96177214	    -17.13012186	     20.74536483	     -5.60663815	    -14.34195837	     -2.55797439	      2.36436555
      2.77000000	      5.49334227	     -1.36202673	    -27.55662078	     -0.01949122	      0.89251852	      0.14925159	     20.01172138	     -4.45926894	    -12.59105824	    -20.05939128	     14.14554399	     -2.17641602	    -10.36759435	      4.61492508	    -12.90329438	    -17.34827368	     21.18007711	     -5.29569297	    -14.34219279	     -2.38077692	      2.40329620
      2.78000000	      5.42529703	     -1.57340683	    -27.48492858	     -0.01083238	      0.89082046	      0.15491345	     19.88378178	     -3.85514596	    -13.21590842	    -17.82389857	     13.92977993	     -1.22750049	    -11.01898932	      4.25185841	    -12.85633420	    -17.61926009	     21.57200146	     -4.97092984	    -14.27234037	     -2.21093099	      2.44547223
      2.79000000	      5.29107317	     -1.76335255	    -27.42148315	     -0.00207463	      0.88901246	      0.16067793	     19.84891576	     -3.22292260	    -13.63805751	    -15.90592204	     13.73796276	     -0.52364025	    -11.58793042	      3.86562182	    -12.84072351	    -17.92230444	     21.94429935	     -4.69483328	    -14.10073865	     -2.02115770	      2.46568414
      2.80000000	      5.18011673	     -1.92924617	    -27.33539886	      0.00676719	      0.88726156	      0.16645157	     19.80796804	     -2.63386113	    -13.84098176	    -14.31221638	     13.54631109	      0.30414912	    -12.14998624	      3.51097545	    -12.74189535	    -18.26247711	     22.18293575	     -4.29257989	    -13.93496566	     -1.85916063	      2.46736187
      2.81000000	      4.99901369	     -2.09509879	    -27.23699285	      0.01578635	      0.88547599	      0.17229223	     19.84469000	     -2.03826451	    -13.89559052	    -13.09619147	     13.40515134	      0.73531788	    -12.62819812	      3.10913654	    -12.66109249	    -18.65466452	     22.40520624	     -4.01054334	    -13.66982670	     -1.64161896	      2.45990327
      2.82000000	      4.79879072	     -2.21944476	    -27.09863737	      0.02494776	      0.88375222	      0.17815450	     19.90994543	     -1.50607652	    -13.74042867	    -12.23130920	     13.23260145	      0.96408919	    -13.04919688	      2.72708582	    -12.49273821	    -19.08164910	     22.50755623	     -3.79210978	    -13.34972163	     -1.44464709	      2.38399820
      2.83000000	      4.60445582	     -2.37425457	    -26.91938646	      0.03435328	      0.88218126	      0.18406112	     19.94579625	     -0.99842655	    -13.49193427	    -11.74834338	     13.11119668	      1.12081638	    -13.48036813	      2.30942770	    -12.25123974	    -19.54569985	     22.49140907	     -3.52263835	    -13.02297833	     -1.19112474	      2.24249206
      2.84000000	      4.41498302	     -2.53942447	    -26.69991779	      0.04402977	      0.88076506	      0.19005218	     19.94477179	     -0.52740046	    -13.19798675	    -11.60347359	     13.03549388	      1.15948008	    -13.91265079	      1.86928637	    -11.94076320	    -20.04120907	     22.34966591	     -2.99781926	    -12.67353117	     -0.91377844	      2.07637153
      2.85000000	      4.19177845	     -2.67937563	    -26.43517444	      0.05387072	      0.87945870	      0.19606574	     19.96566204	     -0.10052786	    -12.80737509	    -11.76230906	     12.82465984	      0.95984424	    -14.22871916	      1.42170698	    -11.49352387	    -20.66224206	     22.07104401	     -2.74890460	    -12.25851657	     -0.62827062	      1.86399132
      2.86000000	      3.95684097	     -2.81121990	    -26.13528554	      0.06393025	      0.87828986	      0.20214794	     19.97039488	      0.29798487	    -12.33922191	    -12.17848863	     12.61863518	      0.44652195	    -14.47460923	      0.95985586	    -10.94900052	    -21.38174319	     21.65173617	     -2.34516451	    -11.79966436	     -0.32791866	      1.58769360
      2.87000000	      3.71926226	     -2.94496236	    -25.81271699	      0.07413608	      0.87731876	      0.20826812	     19.95670224	      0.67860935	    -11.84838808	    -12.81036943	     12.23631484	     -0.15824096	    -14.62628910	      0.48595097	    -10.28539156	    -22.25281166	     21.04169867	     -2.04582927	    -11.32518138	     -0.01228493	      1.30797362
      2.88000000	      3.47049444	     -3.07912132	    -25.51000016	      0.08445309	      0.87653582	      0.21447975	     19.92779160	      1.07395191	    -11.21677905	    -13.58123280	     11.82827033	     -1.19314106	    -14.66669914	      0.00655617	     -9.56462034	    -23.28391361	     20.19282293	     -1.60922320	    -10.82404297	      0.31830000	      1.02843922
      2.89000000	      3.19123096	     -3.22751359	    -25.16039029	      0.09483416	      0.87595056	      0.22062061	     19.93575286	      1.46351514	    -10.68934076	    -14.50312155	     11.25874353	     -2.13716205	    -14.50655172	     -0.51018357	     -8.67812276	    -24.58416481	     19.19137251	     -1.26479375	    -10.30058529	      0.69434739	      0.72416298
